<?xml version="1.0" standalone="no"?><!DOCTYPE svg PUBLIC "-//W3C//DTD SVG 1.1//EN" "http://www.w3.org/Graphics/SVG/1.1/DTD/svg11.dtd"><svg t="1495021440638" class="icon" style="" viewBox="0 0 1024 1024" version="1.1" xmlns="http://www.w3.org/2000/svg" p-id="2662" xmlns:xlink="http://www.w3.org/1999/xlink" width="16" height="16"><defs><style type="text/css"></style></defs><path d="M774.055414 912.360364l-32.515554-31.400151 107.070574-103.387695-405.169903 0 0-44.405349 405.16581 0-107.065458-103.387695 32.515554-31.395034 130.057101 125.59037 0 0 32.515554 31.395034L774.055414 912.360364zM801.835108 284.977473l-179.197288 0L622.63782 105.779162l-492.792543 0L129.845277 912.167982l313.595254 0 0 44.799322-358.394576 0L85.045955 60.97984l582.39221 0 0 0 0 2.249227 176.948061 176.948061 2.249227 0 0 44.799322 0 268.795932-44.799322 0L801.836131 284.977473zM667.437142 126.584l0 113.593128 113.589035 0L667.437142 126.584z" p-id="2663"></path></svg>