<?xml version="1.0" encoding="utf-8"?>
<!-- Generator: Adobe Illustrator 22.1.0, SVG Export Plug-In . SVG Version: 6.00 Build 0)  -->
<svg version="1.0" id="Layer_1" xmlns="http://www.w3.org/2000/svg" xmlns:xlink="http://www.w3.org/1999/xlink" x="0px" y="0px"
	 viewBox="0 0 200 200" enable-background="new 0 0 200 200" xml:space="preserve">
<path fill="none" stroke="#808080" stroke-width="10" stroke-linejoin="round" stroke-miterlimit="10" d="M138.3,105H61.8
	C55.3,105,50,99.7,50,93.3V16.8C50,10.3,55.3,5,61.8,5h76.5c6.5,0,11.8,5.3,11.8,11.8v76.5C150,99.7,144.7,105,138.3,105z"/>
<path fill="#808080" stroke="#808080" stroke-width="10" stroke-linejoin="round" stroke-miterlimit="10" d="M12.8,68H26v63h145V69
	h16c4.4,0,8,3.6,8,8v97.3c0,11.4-9.3,20.7-20.7,20.7H25.6c-11.4,0-20.6-9.2-20.7-20.6c-0.1-28.6-0.3-79.1-0.1-98.5
	C4.8,71.5,8.4,68,12.8,68z"/>
</svg>
