<?xml version="1.0" standalone="no"?><!DOCTYPE svg PUBLIC "-//W3C//DTD SVG 1.1//EN" "http://www.w3.org/Graphics/SVG/1.1/DTD/svg11.dtd"><svg t="1494063448482" class="icon" style="" viewBox="0 0 1024 1024" version="1.1" xmlns="http://www.w3.org/2000/svg" p-id="8196" xmlns:xlink="http://www.w3.org/1999/xlink" width="16" height="16"><defs><style type="text/css"></style></defs><path d="M960.24 195.093c-7.045 25.162-13.3 48.539-30.685 62.625-152.125 123.258-274.058 276.3-412.026 413.431-3.627 3.608-7.963 6.79-10.664 11.005C448.23 773.604 345.66 785.267 255.894 819.69c-19.272 7.387-49.419-26.959-43.637-47.365 16.292-57.476 32.242-115.064 49.761-172.168 2.966-9.666 12.217-18.029 19.995-25.503 131.218-126.012 263.141-251.292 393.701-377.98 31.14-30.215 58.129-64.747 86.613-97.659 38.456-44.434 92.217-48.013 134.119-6.808 25.227 24.803 55.885 46.376 61.678 85.48 0.753 5.067 1.563 10.123 2.346 15.182C962.381 194.016 958.326 193.946 960.24 195.093zM721.565 237.124C594.361 364.575 467.393 491.786 343.14 616.279c21.402 21.686 45.09 45.688 65.777 66.644 127.033-124.28 255.2-249.665 382.735-374.434C765.676 282.037 742.021 257.954 721.565 237.124zM751.953 183.262c31.601 30.267 59.139 56.644 91.666 87.801 5.813-7.922 11.445-17.709 19.042-25.595 54.863-56.933 54.983-56.809-2.798-111.522-1.236-1.175-2.364-2.475-3.632-3.613-15.979-14.337-32.187-14.5-47.97-0.005C790.05 147.045 772.219 164.171 751.953 183.262zM281.031 750.936c29.28-11.791 52.376-21.089 72.131-29.043-15.174-17.848-29.055-34.176-45.392-53.396C298.67 696.539 290.938 720.387 281.031 750.936z" p-id="8197"></path><path d="M464.602 959.783c-84.649 0-169.299 0.129-253.948-0.055-46.354-0.102-87.305-12.635-118.404-50.028-20.506-24.654-26.319-53.31-26.365-83.719-0.255-168.444-0.916-336.896 0.196-505.335 0.591-90.427 56.421-144.32 146.989-144.846 91.49-0.531 182.985-0.018 274.474-0.201 20.044-0.037 39.148 1.542 41.708 26.855 1.875 18.522-13.274 27.868-42.991 27.891-88.919 0.075-177.848-0.133-266.776 0.085-63.603 0.158-99.734 36.669-99.753 100.365-0.06 162.45-0.075 324.903-0.035 487.354 0.01 50.26 33.871 86.142 84.609 86.331 173.573 0.657 347.151 0.527 520.724 0.116 41.066-0.096 67.666-29.396 67.848-73.861 0.454-111.143 0.216-222.289 0.386-333.438 0.015-8.486-1.965-19.188 2.284-24.958 7.151-9.717 19.358-23.275 27.953-22.286 8.985 1.033 16.895 16.867 23.842 27.193 2.397 3.558 0.548 10.007 0.548 15.137 0.01 110.302 0.154 220.605-0.041 330.907-0.16 92.874-43.949 136.383-136.985 136.483C628.777 959.857 546.689 959.792 464.602 959.783z" p-id="8198"></path></svg>