<?xml version="1.0" encoding="utf-8"?>
<!-- Generator: Adobe Illustrator 19.0.0, SVG Export Plug-In . SVG Version: 6.00 Build 0)  -->
<svg version="1.1" id="图层_1" xmlns="http://www.w3.org/2000/svg" xmlns:xlink="http://www.w3.org/1999/xlink" x="0px" y="0px"
	 viewBox="0 0 595.3 841.9" style="enable-background:new 0 0 595.3 841.9;" xml:space="preserve">
<style type="text/css">
	.st0{fill-rule:evenodd;clip-rule:evenodd;fill:#7A7A7A;}
</style>
<g>
	<path class="st0" d="M386.6,551.5c-27.2,19.3-59,28.9-91.5,28.5c-4.3,0-8.5-0.3-12.8-0.6c-1.7-0.2-3.4-0.4-5.2-0.7
		c-3.3-0.4-6.6-0.9-9.9-1.5c-2-0.4-4-0.9-5.9-1.4c-3.2-0.8-6.3-1.5-9.4-2.4c-1.5-0.5-2.9-1-4.4-1.5c-3.6-1.2-7.1-2.5-10.6-3.9
		c-0.8-0.3-1.5-0.7-2.3-1c-4-1.8-8-3.7-11.9-5.8c-0.2-0.1-0.3-0.2-0.5-0.3c-13.1-7.3-25-16.3-35.5-26.9c-0.2-0.2-0.3-0.4-0.5-0.5
		c-3.3-3.3-6.4-6.8-9.3-10.4c-0.6-0.8-1.2-1.6-1.8-2.4c-21.4-27-34.2-61.3-34.2-98.5h36.2c1,0,1.9-0.5,2.3-1.4
		c0.5-0.9,0.4-1.9-0.1-2.7l-60.9-92.5c-0.5-0.7-1.3-1.2-2.2-1.2c-0.9,0-1.7,0.4-2.2,1.2l-60.9,92.5c-0.5,0.8-0.6,1.8-0.1,2.7
		c0.5,0.9,1.3,1.4,2.3,1.4h36.2c0,43.8,13.5,84.4,36.4,117.9c0.3,0.5,0.5,1,0.8,1.4c2.4,3.4,5,6.6,7.5,9.8c0.9,1.2,1.8,2.5,2.8,3.7
		c3.7,4.6,7.7,8.9,11.8,13.2c0.4,0.4,0.8,0.8,1.1,1.2c13.7,13.9,29.3,25.7,46.2,35.1c0.4,0.3,0.9,0.5,1.4,0.8
		c4.9,2.7,9.9,5,14.9,7.3c1.3,0.5,2.5,1.2,3.8,1.7c4.3,1.8,8.8,3.4,13.3,4.9c2.1,0.7,4.2,1.5,6.4,2.1c3.9,1.2,7.9,2.2,12,3.1
		c2.7,0.6,5.3,1.3,8.1,1.8c1.1,0.2,2.2,0.6,3.3,0.8c3.8,0.7,7.6,1.1,11.5,1.5c1.4,0.2,2.7,0.4,4.1,0.5c6.9,0.7,13.7,1.1,20.5,1.1
		c41.8,0,82.5-12.9,117.5-37.7c11.1-7.9,13.9-23.5,6.1-34.8C413.1,546.3,397.8,543.6,386.6,551.5L386.6,551.5z M502.5,422
		c0-43.6-13.4-84.1-36.2-117.6c-0.3-0.6-0.6-1.2-0.9-1.7c-2.8-4.1-5.9-7.9-9-11.7c-0.4-0.5-0.7-1-1.1-1.4
		c-20.9-25.6-47-45.4-76.7-58.3c-0.8-0.4-1.6-0.8-2.5-1.1c-4.7-2-9.6-3.7-14.5-5.4c-1.8-0.6-3.5-1.2-5.3-1.8
		c-4.3-1.3-8.6-2.4-12.9-3.4c-2.4-0.6-4.8-1.2-7.2-1.7c-1.2-0.2-2.3-0.6-3.5-0.8c-3.2-0.6-6.5-0.8-9.8-1.2c-2.3-0.3-4.5-0.6-6.7-0.9
		c-5.5-0.5-10.9-0.7-16.3-0.8c-1,0-1.9-0.2-2.9-0.2c-0.2,0-0.3,0.1-0.5,0.1c-41.7,0-82.4,12.8-117.3,37.6
		c-11.2,7.9-13.9,23.5-6.1,34.8c7.8,11.3,23.2,14,34.3,6.1c27-19.1,58.4-28.8,90.7-28.5c4.6,0,9.2,0.3,13.7,0.7
		c1.4,0.2,2.8,0.4,4.2,0.5c3.7,0.5,7.4,1,11,1.7c1.6,0.3,3.2,0.7,4.7,1.1c3.6,0.8,7.1,1.7,10.6,2.7c1.1,0.4,2.2,0.8,3.3,1.1
		c4,1.3,7.9,2.7,11.7,4.3c0.4,0.2,0.8,0.4,1.2,0.5c23,10,43.1,25.4,58.9,44.7c0.1,0.1,0.2,0.3,0.3,0.4
		c22.1,27.3,35.5,62.2,35.5,100.1H417c-1,0-1.9,0.5-2.3,1.4c-0.5,0.9-0.4,1.9,0.1,2.7l60.9,92.4c0.5,0.7,1.3,1.2,2.2,1.2
		c0.9,0,1.7-0.4,2.2-1.2l60.9-92.4c0.5-0.8,0.6-1.8,0.1-2.7c-0.5-0.9-1.3-1.4-2.3-1.4H502.5"/>
</g>
</svg>
