<?xml version="1.0" standalone="no"?><!DOCTYPE svg PUBLIC "-//W3C//DTD SVG 1.1//EN" "http://www.w3.org/Graphics/SVG/1.1/DTD/svg11.dtd"><svg t="1495021544175" class="icon" style="" viewBox="0 0 1024 1024" version="1.1" xmlns="http://www.w3.org/2000/svg" p-id="3326" xmlns:xlink="http://www.w3.org/1999/xlink" width="16" height="16"><defs><style type="text/css"></style></defs><path d="M966.912 124.16c-1.5616-2.6624-7.68-11.648-21.9136-15.2576-18.0224-4.5824-41.472 1.664-68.4544 18.1248L71.8848 552.7808c-6.9376 3.1744-29.4144 15.104-28.9024 36.3264C43.2896 603.2896 53.3248 614.4 73.8304 622.5664l254.3616 84.1216 12.0576-36.4544-251.2896-83.0976L880.3328 168.3968 496.5888 609.4592c-7.808 8.3712-76.2624 83.1744-82.688 133.5552l0 188.6976 38.4 0-0.1792-186.1888c3.5584-26.9824 46.4128-81.7408 73.0112-110.3872L921.9072 179.072l-121.4464 624.9984c-2.5088 23.7312-9.1904 28.032-9.984 28.4672-2.2272 1.2032-6.4512-0.3072-6.9888-0.5632-1.0752-0.5888-2.176-1.0752-3.328-1.4592l-256.896-85.248-12.1088 36.4544 255.616 84.8128c3.7376 1.7664 11.8016 4.8896 21.5808 4.8896 6.0928 0 12.9024-1.2032 19.7376-4.7616 17.1008-8.8576 27.392-28.5696 30.336-56.9088l130.7136-672.3328C970.0096 132.864 969.216 128.1536 966.912 124.16z" p-id="3327"></path></svg>