<?xml version="1.0" standalone="no"?><!DOCTYPE svg PUBLIC "-//W3C//DTD SVG 1.1//EN" "http://www.w3.org/Graphics/SVG/1.1/DTD/svg11.dtd"><svg t="1493713519275" class="icon" style="" viewBox="0 0 1024 1024" version="1.1" xmlns="http://www.w3.org/2000/svg" p-id="18730" xmlns:xlink="http://www.w3.org/1999/xlink" width="200" height="200"><defs><style type="text/css"></style></defs><path d="M511.605515 331.923692c-98.876961 0-179.283246 80.407308-179.283246 179.283246 0 98.877985 80.406285 179.283246 179.283246 179.283246 98.877985 0 179.283246-80.405261 179.283246-179.283246C690.888761 412.331 610.4835 331.923692 511.605515 331.923692zM511.605515 645.669372c-74.256214 0-134.462434-60.183707-134.462434-134.462434 0-74.277704 60.205197-134.461411 134.462434-134.461411S646.06795 436.928211 646.06795 511.206938C646.06795 585.485665 585.862753 645.669372 511.605515 645.669372z" p-id="18731"></path><path d="M959.81363 600.848561l0-179.283246-129.975237-21.51399c-3.591805-12.102642-8.53642-24.203238-14.794961-35.409464l77.078493-107.128903L765.276982 130.668015l-107.10639 77.103052c-11.20418-6.2831-23.306822-11.206226-35.410488-14.794961L601.248162 62.998823l-179.283246 0-21.512966 129.97626c-12.56313 3.589758-24.205285 8.973372-35.848463 14.794961l-106.23044-75.746148L131.526057 258.412444l76.204589 106.23044c-5.821589 11.206226-10.767228 23.306822-14.356986 35.409464L63.397401 421.566338l0 179.283246 129.97626 21.511943c4.02671 12.540617 8.973372 25.102724 15.231913 36.745902l-76.182077 106.23044 126.845966 126.845966 106.668415-76.641541c11.205203 5.383614 22.410406 10.307763 34.513048 13.896498l21.512966 129.97626 179.283246 0 21.511943-129.97626c12.562107-4.048199 24.64326-8.973372 36.307927-15.253402l107.127879 77.101006 126.845966-126.845966-77.101006-107.564831c5.361101-11.205203 10.305717-22.410406 13.897521-34.514071L959.81363 600.848561zM786.854417 609.624435c-2.886747 9.739828-7.133468 19.149129-11.335163 27.838022-7.090489 14.750959-5.558599 32.237215 3.983731 45.543266l54.9321 76.641541-73.008804 73.008804-76.1831-54.843072c-7.768941-5.603625-16.938788-8.448416-26.173103-8.448416-7.311523 0-14.598486 1.794879-21.252023 5.384637-8.643867 4.617158-18.055215 8.555863-28.756951 12.013615-16.018835 5.164626-27.750017 18.778692-30.55183 35.366486l-15.275915 92.464925L459.978694 914.594241l-15.275915-92.464925c-2.844791-16.938788-15.078417-30.792307-31.514761-35.671431-9.738805-2.867304-19.149129-7.135514-27.882024-11.337209-6.15007-2.910283-12.781094-4.39817-19.368116-4.39817-9.235338 0-18.361183 2.867304-26.131147 8.425903l-75.788104 54.406121-73.007781-73.009827 54.05615-75.30715c9.93528-13.875009 11.161201-32.301683 2.998287-47.359634-4.399193-8.206916-8.338922-17.748223-12.014638-29.237905-5.164626-15.998369-18.777669-27.728528-35.366486-30.506804l-92.464925-15.298428L108.219235 459.579093l92.464925-15.296381c16.938788-2.824325 30.792307-15.057951 35.672454-31.493272 2.735297-9.191336 6.544043-18.689664 11.118222-27.489074 7.79043-14.9679 6.500041-33.067116-3.326768-46.789653l-54.012148-75.263148 73.030293-72.725348 75.394131 53.729715c7.746428 5.513574 16.851806 8.337899 26.043143 8.337899 6.850012 0 13.700023-1.575892 20.025079-4.750187 9.104355-4.530177 18.777669-9.103332 28.145014-11.751648 16.632819-4.793166 29.04143-18.689664 31.930223-35.804461l15.275915-92.464925 103.253642 0 15.275915 92.464925c2.844791 16.938788 15.07944 30.792307 31.514761 35.673477 9.323343 2.7793 18.427698 6.544043 26.26213 10.942213 6.828522 3.807722 14.356986 5.690606 21.88545 5.690606 9.235338 0 18.383696-2.824325 26.175149-8.425903l76.204589-54.866608 72.964802 72.964802-54.865585 76.203566c-10.17678 14.116509-11.205203 32.850176-2.736321 48.104601 4.400217 7.79043 8.163937 16.85283 10.94119 26.219151 4.882194 16.435321 18.735713 28.668946 35.673477 31.493272l92.464925 15.296381 0 103.254665-92.464925 15.298428C805.589107 580.954465 791.735587 593.189114 786.854417 609.624435z" p-id="18732"></path></svg>