<?xml version="1.0" standalone="no"?><!DOCTYPE svg PUBLIC "-//W3C//DTD SVG 1.1//EN" "http://www.w3.org/Graphics/SVG/1.1/DTD/svg11.dtd"><svg t="1493714983313" class="icon" style="" viewBox="0 0 1024 1024" version="1.1" xmlns="http://www.w3.org/2000/svg" p-id="6018" xmlns:xlink="http://www.w3.org/1999/xlink" width="200" height="200"><defs><style type="text/css"></style></defs><path d="M946.830433 358.111121c-118.097722-97.685833-269.597181-156.420539-434.830433-156.420539S195.267289 260.426311 77.169567 358.111121l-35.890418-50.66696c128.307248-104.816231 292.112987-167.815053 470.708572-167.815053l0.024559 0c178.595584 0 342.401324 62.998823 470.708572 167.815053L946.830433 358.111121zM869.954555 466.638883l-36.09508 50.958602c-83.622536-80.184227-196.860577-129.721457-321.859475-129.721457s-238.236939 49.538253-321.859475 129.721457l-36.101219-50.958602c94.091982-87.140663 219.605603-140.824329 357.960695-140.824329S775.868713 379.49822 869.954555 466.638883zM512 512c98.368378 0 185.875384 45.907563 242.730277 117.309776l-37.659715 53.16178C672.368454 617.039311 597.222987 574.061474 512 574.061474s-160.367431 42.977837-205.071585 108.410082l-37.658691-53.16178C326.124616 557.907563 413.631622 512 512 512zM512 698.185446c51.411927 0 93.093235 41.680285 93.093235 93.093235s-41.680285 93.093235-93.093235 93.093235-93.093235-41.680285-93.093235-93.093235S460.588073 698.185446 512 698.185446z" p-id="6019"></path></svg>