<?xml version="1.0" encoding="iso-8859-1"?>
<!-- Generator: Adobe Illustrator 25.0.0, SVG Export Plug-In . SVG Version: 6.00 Build 0)  -->
<svg version="1.1" id="&#x652F;&#x6491;" xmlns="http://www.w3.org/2000/svg" xmlns:xlink="http://www.w3.org/1999/xlink" x="0px"
	 y="0px" viewBox="0 0 24 24" style="enable-background:new 0 0 24 24;" xml:space="preserve">
<rect style="fill:none;" width="24" height="24"/>
<path d="M6.4,10.5c-0.6-0.6-0.6-1.5,0-2l0,0l4.8-4.8c0.6-0.6,1.5-0.6,2,0l0,0L18,8.5c0.6,0.6,0.6,1.5,0,2l0,0l-4.8,4.8
	c-0.6,0.6-1.5,0.6-2,0l0,0L6.4,10.5z M19.5,18.9v-6.7l-1.6,1.6v5.1H16v-3.2l-1.6,1.6V19h-4.2v-1.6l-1.6-1.6V19H6.7v-5.1l-1.6-1.6
	v6.6H3v1.8h18v-1.8H19.5z"/>
</svg>
